<?xml version="1.0" encoding="UTF-8"?>
<svg width="100" height="100" viewBox="0 0 100 100" xmlns="http://www.w3.org/2000/svg">
  <!-- Circular border -->
  <circle cx="50" cy="50" r="45" fill="none" stroke="#FFD700" stroke-width="2"/>
  
  <!-- Ornate circular frame -->
  <circle cx="50" cy="50" r="40" fill="none" stroke="#FFD700" stroke-width="1" stroke-dasharray="3,3"/>
  
  <!-- Aquarius symbol - stylized water waves -->
  <!-- Upper wave -->
  <path d="M30 40 C35 35, 45 35, 50 40 C55 45, 65 45, 70 40" 
        fill="none" 
        stroke="#FFD700" 
        stroke-width="2.5"
        stroke-linecap="round"/>
  
  <!-- Lower wave -->
  <path d="M30 55 C35 50, 45 50, 50 55 C55 60, 65 60, 70 55" 
        fill="none" 
        stroke="#FFD700" 
        stroke-width="2.5"
        stroke-linecap="round"/>
  
  <!-- Water drops -->
  <g fill="none" stroke="#FFD700" stroke-width="1.5">
    <path d="M40 42 C40 45, 42 47, 42 44"/>
    <path d="M60 42 C60 45, 62 47, 62 44"/>
    <path d="M40 57 C40 60, 42 62, 42 59"/>
    <path d="M60 57 C60 60, 62 62, 62 59"/>
  </g>
  
  <!-- Flow lines -->
  <g stroke="#FFD700" stroke-width="1" stroke-dasharray="2,2">
    <path d="M45 40 L45 55"/>
    <path d="M55 40 L55 55"/>
  </g>
  
  <!-- Decorative elements -->
  <g stroke="#FFD700" stroke-width="1">
    <line x1="50" y1="10" x2="50" y2="20"/>
    <line x1="50" y1="80" x2="50" y2="90"/>
    <line x1="10" y1="50" x2="20" y2="50"/>
    <line x1="80" y1="50" x2="90" y2="50"/>
    <!-- Additional ornate details -->
    <circle cx="50" cy="50" r="35" fill="none" stroke-dasharray="1,5"/>
    <!-- Small dots representing stars -->
    <circle cx="35" cy="47.5" r="1" fill="#FFD700"/>
    <circle cx="65" cy="47.5" r="1" fill="#FFD700"/>
  </g>
  
  <!-- Central flow point -->
  <circle cx="50" cy="47.5" r="2" 
          fill="none" 
          stroke="#FFD700" 
          stroke-width="1"/>
</svg>
