<?xml version="1.0" encoding="UTF-8"?>
<svg width="100" height="100" viewBox="0 0 100 100" xmlns="http://www.w3.org/2000/svg">
  <!-- Circular border -->
  <circle cx="50" cy="50" r="45" fill="none" stroke="#FFD700" stroke-width="2"/>
  
  <!-- Ornate circular frame -->
  <circle cx="50" cy="50" r="40" fill="none" stroke="#FFD700" stroke-width="1" stroke-dasharray="3,3"/>
  
  <!-- Leo symbol - stylized lion's head and mane -->
  <!-- Main head circle -->
  <circle cx="50" cy="50" r="12" 
          fill="none" 
          stroke="#FFD700" 
          stroke-width="2.5"/>
  
  <!-- Mane rays -->
  <g stroke="#FFD700" stroke-width="2" stroke-linecap="round">
    <path d="M38 38 C35 35, 32 34, 30 35"/>
    <path d="M42 35 C40 30, 38 28, 37 28"/>
    <path d="M50 33 C50 28, 48 25, 47 24"/>
    <path d="M58 35 C60 30, 62 28, 63 28"/>
    <path d="M62 38 C65 35, 68 34, 70 35"/>
    <path d="M65 45 C70 43, 72 42, 73 42"/>
    <path d="M65 55 C70 57, 72 58, 73 58"/>
  </g>
  
  <!-- Face details -->
  <!-- Eyes -->
  <circle cx="45" cy="47" r="1.5" fill="#FFD700"/>
  <circle cx="55" cy="47" r="1.5" fill="#FFD700"/>
  
  <!-- Nose -->
  <path d="M48 52 C50 54, 52 54, 54 52" 
        fill="none" 
        stroke="#FFD700" 
        stroke-width="1.5"/>
  
  <!-- Decorative elements -->
  <g stroke="#FFD700" stroke-width="1">
    <line x1="50" y1="10" x2="50" y2="20"/>
    <line x1="50" y1="80" x2="50" y2="90"/>
    <line x1="10" y1="50" x2="20" y2="50"/>
    <line x1="80" y1="50" x2="90" y2="50"/>
    <!-- Additional ornate details -->
    <circle cx="50" cy="50" r="35" fill="none" stroke-dasharray="1,5"/>
    <!-- Royal crown suggestion -->
    <path d="M42 30 L50 25 L58 30" 
          fill="none" 
          stroke="#FFD700" 
          stroke-width="1"/>
  </g>
</svg>
