<?xml version="1.0" encoding="UTF-8"?>
<svg width="100" height="100" viewBox="0 0 100 100" xmlns="http://www.w3.org/2000/svg">
  <!-- Circular border -->
  <circle cx="50" cy="50" r="45" fill="none" stroke="#FFD700" stroke-width="2"/>
  
  <!-- Ornate circular frame -->
  <circle cx="50" cy="50" r="40" fill="none" stroke="#FFD700" stroke-width="1" stroke-dasharray="3,3"/>
  
  <!-- Libra symbol - stylized scales of justice -->
  <!-- Central pillar -->
  <path d="M50 30 L50 70" 
        stroke="#FFD700" 
        stroke-width="2.5" 
        stroke-linecap="round"/>
  
  <!-- Balance beam -->
  <path d="M30 35 L70 35" 
        stroke="#FFD700" 
        stroke-width="2.5" 
        stroke-linecap="round"/>
  
  <!-- Scale bowls -->
  <path d="M30 35 C25 35, 20 40, 25 45 C30 50, 35 45, 30 35" 
        fill="none" 
        stroke="#FFD700" 
        stroke-width="2"/>
  <path d="M70 35 C75 35, 80 40, 75 45 C70 50, 65 45, 70 35" 
        fill="none" 
        stroke="#FFD700" 
        stroke-width="2"/>
  
  <!-- Hanging chains -->
  <path d="M30 35 C30 38, 25 42, 25 45" 
        fill="none" 
        stroke="#FFD700" 
        stroke-width="1.5"
        stroke-dasharray="2,2"/>
  <path d="M70 35 C70 38, 75 42, 75 45" 
        fill="none" 
        stroke="#FFD700" 
        stroke-width="1.5"
        stroke-dasharray="2,2"/>
  
  <!-- Base -->
  <path d="M40 70 L60 70" 
        stroke="#FFD700" 
        stroke-width="2.5" 
        stroke-linecap="round"/>
  
  <!-- Decorative elements -->
  <g stroke="#FFD700" stroke-width="1">
    <line x1="50" y1="10" x2="50" y2="20"/>
    <line x1="50" y1="80" x2="50" y2="90"/>
    <line x1="10" y1="50" x2="20" y2="50"/>
    <line x1="80" y1="50" x2="90" y2="50"/>
    <!-- Additional ornate details -->
    <circle cx="50" cy="50" r="35" fill="none" stroke-dasharray="1,5"/>
    <!-- Balance points -->
    <circle cx="30" cy="35" r="1.5" fill="#FFD700"/>
    <circle cx="70" cy="35" r="1.5" fill="#FFD700"/>
  </g>
</svg>
