<?xml version="1.0" encoding="UTF-8"?>
<svg width="100" height="100" viewBox="0 0 100 100" xmlns="http://www.w3.org/2000/svg">
  <!-- Circular border -->
  <circle cx="50" cy="50" r="45" fill="none" stroke="#FFD700" stroke-width="2"/>
  
  <!-- Ornate circular frame -->
  <circle cx="50" cy="50" r="40" fill="none" stroke="#FFD700" stroke-width="1" stroke-dasharray="3,3"/>
  
  <!-- Scorpio symbol - stylized scorpion -->
  <!-- Body -->
  <path d="M30 50 C35 50, 45 50, 50 50 C55 50, 65 50, 70 50" 
        stroke="#FFD700" 
        stroke-width="2.5" 
        stroke-linecap="round"/>
  
  <!-- Tail segments -->
  <path d="M70 50 C75 50, 75 45, 75 40" 
        fill="none" 
        stroke="#FFD700" 
        stroke-width="2.5"/>
  <path d="M75 40 C75 35, 70 35, 70 30" 
        fill="none" 
        stroke="#FFD700" 
        stroke-width="2.5"/>
  
  <!-- Stinger -->
  <path d="M70 30 C70 25, 75 25, 73 28" 
        fill="none" 
        stroke="#FFD700" 
        stroke-width="2"
        stroke-linecap="round"/>
  
  <!-- Claws -->
  <path d="M30 50 C25 45, 25 40, 30 35 C35 30, 35 35, 30 40" 
        fill="none" 
        stroke="#FFD700" 
        stroke-width="2"/>
  <path d="M40 50 C35 45, 35 40, 40 35 C45 30, 45 35, 40 40" 
        fill="none" 
        stroke="#FFD700" 
        stroke-width="2"/>
  
  <!-- Legs -->
  <g stroke="#FFD700" stroke-width="1.5" stroke-linecap="round">
    <path d="M45 50 L40 55"/>
    <path d="M55 50 L50 55"/>
    <path d="M65 50 L60 55"/>
  </g>
  
  <!-- Decorative elements -->
  <g stroke="#FFD700" stroke-width="1">
    <line x1="50" y1="10" x2="50" y2="20"/>
    <line x1="50" y1="80" x2="50" y2="90"/>
    <line x1="10" y1="50" x2="20" y2="50"/>
    <line x1="80" y1="50" x2="90" y2="50"/>
    <!-- Additional ornate details -->
    <circle cx="50" cy="50" r="35" fill="none" stroke-dasharray="1,5"/>
    <!-- Small dots representing stars -->
    <circle cx="73" cy="28" r="1" fill="#FFD700"/>
    <circle cx="35" cy="35" r="1" fill="#FFD700"/>
  </g>
</svg>
