<?xml version="1.0" encoding="UTF-8"?>
<svg width="100" height="100" viewBox="0 0 100 100" xmlns="http://www.w3.org/2000/svg">
  <!-- Circular border -->
  <circle cx="50" cy="50" r="45" fill="none" stroke="#FFD700" stroke-width="2"/>
  
  <!-- Ornate circular frame -->
  <circle cx="50" cy="50" r="40" fill="none" stroke="#FFD700" stroke-width="1" stroke-dasharray="3,3"/>
  
  <!-- Taurus symbol - stylized bull's head -->
  <path d="M30 55 C30 45, 40 35, 50 35 C60 35, 70 45, 70 55" 
        fill="none" 
        stroke="#FFD700" 
        stroke-width="3" 
        stroke-linecap="round"/>
  
  <!-- Bull's horns -->
  <path d="M30 55 C25 45, 30 40, 35 45" 
        fill="none" 
        stroke="#FFD700" 
        stroke-width="2"/>
  <path d="M70 55 C75 45, 70 40, 65 45" 
        fill="none" 
        stroke="#FFD700" 
        stroke-width="2"/>
  
  <!-- Central circle representing the head -->
  <circle cx="50" cy="50" r="5" fill="none" stroke="#FFD700" stroke-width="2"/>
  
  <!-- Decorative elements -->
  <g stroke="#FFD700" stroke-width="1">
    <line x1="50" y1="10" x2="50" y2="20"/>
    <line x1="50" y1="80" x2="50" y2="90"/>
    <line x1="10" y1="50" x2="20" y2="50"/>
    <line x1="80" y1="50" x2="90" y2="50"/>
    <!-- Additional ornate details -->
    <path d="M40 65 Q50 70 60 65" fill="none"/>
    <circle cx="50" cy="50" r="35" fill="none" stroke-dasharray="1,5"/>
  </g>
</svg>
