<?xml version="1.0" encoding="UTF-8"?>
<svg width="100" height="100" viewBox="0 0 100 100" xmlns="http://www.w3.org/2000/svg">
  <!-- Circular border -->
  <circle cx="50" cy="50" r="45" fill="none" stroke="#FFD700" stroke-width="2"/>
  
  <!-- Ornate circular frame -->
  <circle cx="50" cy="50" r="40" fill="none" stroke="#FFD700" stroke-width="1" stroke-dasharray="3,3"/>
  
  <!-- Virgo symbol - stylized maiden with wheat -->
  <!-- Main figure -->
  <path d="M50 30 L50 60" 
        stroke="#FFD700" 
        stroke-width="2.5" 
        stroke-linecap="round"/>
  
  <!-- Dress/skirt -->
  <path d="M50 45 C40 60, 45 70, 50 70 C55 70, 60 60, 50 45" 
        fill="none" 
        stroke="#FFD700" 
        stroke-width="2"/>
  
  <!-- Arms holding wheat -->
  <path d="M50 40 C40 40, 35 35, 30 30" 
        fill="none" 
        stroke="#FFD700" 
        stroke-width="2"/>
  <path d="M50 40 C60 40, 65 35, 70 30" 
        fill="none" 
        stroke="#FFD700" 
        stroke-width="2"/>
  
  <!-- Wheat stalks -->
  <g stroke="#FFD700" stroke-width="1.5" stroke-linecap="round">
    <path d="M30 30 L28 25"/>
    <path d="M30 30 L32 25"/>
    <path d="M70 30 L68 25"/>
    <path d="M70 30 L72 25"/>
  </g>
  
  <!-- Head -->
  <circle cx="50" cy="30" r="5" 
          fill="none" 
          stroke="#FFD700" 
          stroke-width="2"/>
  
  <!-- Decorative elements -->
  <g stroke="#FFD700" stroke-width="1">
    <line x1="50" y1="10" x2="50" y2="20"/>
    <line x1="50" y1="80" x2="50" y2="90"/>
    <line x1="10" y1="50" x2="20" y2="50"/>
    <line x1="80" y1="50" x2="90" y2="50"/>
    <!-- Additional ornate details -->
    <circle cx="50" cy="50" r="35" fill="none" stroke-dasharray="1,5"/>
    <!-- Star crown -->
    <path d="M45 22 L50 20 L55 22" 
          fill="none" 
          stroke-width="1"/>
  </g>
</svg>
